<?xml version="1.0" encoding="utf-8"?>
<!-- Generator: Adobe Illustrator 22.1.0, SVG Export Plug-In . SVG Version: 6.00 Build 0)  -->
<svg version="1.1" id="Layer_1" xmlns="http://www.w3.org/2000/svg" xmlns:xlink="http://www.w3.org/1999/xlink" x="0px" y="0px"
	 viewBox="0 0 1000.3 336.5" style="enable-background:new 0 0 1000.3 336.5;" xml:space="preserve">
<style type="text/css">
	.st0{fill:#00FFD2;stroke:#231F20;stroke-width:3.25;stroke-miterlimit:10;}
	.st1{fill:#FFFFFF;stroke:#231F20;stroke-width:3.25;stroke-miterlimit:10;}
</style>
<path class="st0" d="M2.6,151.3H33l24.6-91.8l42.4,91.8h26.2l37.6-140h-30.4l-24,89l-40.8-89H40.2L2.6,151.3z"/>
<path class="st0" d="M159.8,151.3h105.6l7.4-27.4h-75.2l8-29.6h65l7.4-27h-65l7.6-28.6h74l7.4-27.4H197.4L159.8,151.3z"/>
<path class="st0" d="M326.4,152.3h28.2l54.8-89.8l6.8,89.8h28.6l85.6-141h-34.8l-54.4,94.8l-6.4-95.2h-26.4L352,106.1l-3.6-94.8h-32
	L326.4,152.3z"/>
<path class="st0" d="M570,153.3c29.4,0,55.6-17.2,55.6-46.6c0-20.4-14.4-30-33.6-37.8c-19-7.8-24.6-11-24.6-18.4
	c0-7,7.4-14.2,20.4-14.2c13.6,0,23,5.2,33.6,15l21.2-21.2c-11.8-12.6-28.4-20.8-52.4-20.8c-30,0-55.6,17.6-55.6,46.2
	c0,20.6,16.2,30.4,34.4,37.8c18.8,7.6,23.8,11.6,23.8,18.4c0,8.8-9,14.6-21.4,14.6c-16,0-28.2-6.4-39.2-18.4L509,127.5
	C522.2,144.5,543,153.3,570,153.3z"/>
<path class="st0" d="M103.2,334.1l22.6-14.4L112,301.1c7.6-8.2,15-17.8,21.8-28.2l-18.6-13c-5.4,8.6-11,16.2-17,22.6l-15.8-21.2
	c29.4-10,37.8-25.2,37.8-38.8c0-19.4-15.6-33.6-38.6-33.6c-27.4,0-44.6,18.4-44.6,39c0,7.6,2.8,16.2,7.4,24.2
	C16,261.5,4.8,278.7,4.8,295.7c0,23.6,18.4,37.6,44.4,37.6c15.4,0,29.6-5.4,42.8-14.6L103.2,334.1z M69.8,244.1
	c-4.6-6.8-5.8-11.8-5.8-15.8c0-8,6.2-15.4,16.2-15.4c8.4,0,12.6,6,12.6,11.4C92.8,232.3,88,237.5,69.8,244.1z M52.6,308.1
	c-12.4,0-18.8-6.2-18.8-14.2c0-8.8,6.8-18,22.8-24.2l21.6,29.8C69.2,305.1,60.4,308.1,52.6,308.1z"/>
<path class="st0" d="M208,333.5c20.8,0,36.2-5.8,47.6-17.2c9.8-9.8,16.8-23.6,21.6-41.6l22.4-83.4h-30.8l-21.2,79
	c-3,11.4-7.6,20-13.6,26c-6,5.8-13.6,8.8-22.8,8.8c-15.8,0-24.4-9.4-24.4-23.2c0-5.8,0.8-10.4,2.2-15.2l20.2-75.4h-30.8L159,263.9
	c-2.2,7.8-3.4,15.4-3.4,22.4C155.6,316.1,175.6,333.5,208,333.5z"/>
<path class="st0" d="M294.6,331.3h30.8l11.4-42.4h26.6c38.2,0,68-19.8,68-54.6c0-12.2-3.6-21.6-10.8-28.8
	c-10.2-10.2-24-14.2-44-14.2h-44.4L294.6,331.3z M344,261.9l11.4-42.8h20c9.2,0,15,2,19.2,6.2c3,3,4.6,7,4.6,11.6
	c0,15.8-13.8,25-34.2,25H344z"/>
<path class="st0" d="M430.4,331.3h52c32.4,0,56.6-9,73.4-25.8c15-15,23-34.2,23-55.2c0-17-4.8-30.6-15.2-41
	c-10.6-10.6-27.6-18-54.8-18H468L430.4,331.3z M468.6,303.5l22.8-84.4h15c15.8,0,26,4,32.2,10.2c5.2,5.2,8.2,12.6,8.2,22.2
	c0,13.6-5,26-14,35c-11.2,11.2-28.2,17-46.8,17H468.6z"/>
<path class="st0" d="M567,331.3h33.2l21.2-31.4h59.2l4.4,31.4h31.6l-22.2-141h-29.6L567,331.3z M639.8,272.7l30.8-46.2l6.4,46.2
	H639.8z"/>
<path class="st0" d="M747.2,331.3H778l30-111.6h42.6l7.6-28.4h-116l-7.6,28.4h42.6L747.2,331.3z"/>
<path class="st0" d="M841.8,331.3h105.6l7.4-27.4h-75.2l8-29.6h65l7.4-27h-65l7.6-28.6h74l7.4-27.4H879.4L841.8,331.3z"/>
<g>
	<path class="st1" d="M16.6,143.3H47l24.6-91.8l42.4,91.8h26.2l37.6-140h-30.4l-24,89l-40.8-89H54.2L16.6,143.3z"/>
	<path class="st1" d="M173.8,143.3h105.6l7.4-27.4h-75.2l8-29.6h65l7.4-27h-65l7.6-28.6h74L316,3.3H211.4L173.8,143.3z"/>
	<path class="st1" d="M340.4,144.3h28.2l54.8-89.8l6.8,89.8h28.6l85.6-141h-34.8l-54.4,94.8l-6.4-95.2h-26.4L366,98.1l-3.6-94.8h-32
		L340.4,144.3z"/>
	<path class="st1" d="M584,145.3c29.4,0,55.6-17.2,55.6-46.6c0-20.4-14.4-30-33.6-37.8c-19-7.8-24.6-11-24.6-18.4
		c0-7,7.4-14.2,20.4-14.2c13.6,0,23,5.2,33.6,15l21.2-21.2C644.9,9.5,628.3,1.3,604.3,1.3c-30,0-55.6,17.6-55.6,46.2
		c0,20.6,16.2,30.4,34.4,37.8c18.8,7.6,23.8,11.6,23.8,18.4c0,8.8-9,14.6-21.4,14.6c-16,0-28.2-6.4-39.2-18.4L523,119.5
		C536.2,136.5,557,145.3,584,145.3z"/>
	<path class="st1" d="M117.2,326.1l22.6-14.4L126,293.1c7.6-8.2,15-17.8,21.8-28.2l-18.6-13c-5.4,8.6-11,16.2-17,22.6l-15.8-21.2
		c29.4-10,37.8-25.2,37.8-38.8c0-19.4-15.6-33.6-38.6-33.6c-27.4,0-44.6,18.4-44.6,39c0,7.6,2.8,16.2,7.4,24.2
		c-28.4,9.4-39.6,26.6-39.6,43.6c0,23.6,18.4,37.6,44.4,37.6c15.4,0,29.6-5.4,42.8-14.6L117.2,326.1z M83.8,236.1
		c-4.6-6.8-5.8-11.8-5.8-15.8c0-8,6.2-15.4,16.2-15.4c8.4,0,12.6,6,12.6,11.4C106.8,224.3,102,229.5,83.8,236.1z M66.6,300.1
		c-12.4,0-18.8-6.2-18.8-14.2c0-8.8,6.8-18,22.8-24.2l21.6,29.8C83.2,297.1,74.4,300.1,66.6,300.1z"/>
	<path class="st1" d="M222,325.5c20.8,0,36.2-5.8,47.6-17.2c9.8-9.8,16.8-23.6,21.6-41.6l22.4-83.4h-30.8l-21.2,79
		c-3,11.4-7.6,20-13.6,26c-6,5.8-13.6,8.8-22.8,8.8c-15.8,0-24.4-9.4-24.4-23.2c0-5.8,0.8-10.4,2.2-15.2l20.2-75.4h-30.8L173,255.9
		c-2.2,7.8-3.4,15.4-3.4,22.4C169.6,308.1,189.6,325.5,222,325.5z"/>
	<path class="st1" d="M308.6,323.3h30.8l11.4-42.4h26.6c38.2,0,68-19.8,68-54.6c0-12.2-3.6-21.6-10.8-28.8
		c-10.2-10.2-24-14.2-44-14.2h-44.4L308.6,323.3z M358,253.9l11.4-42.8h20c9.2,0,15,2,19.2,6.2c3,3,4.6,7,4.6,11.6
		c0,15.8-13.8,25-34.2,25H358z"/>
	<path class="st1" d="M444.4,323.3h52c32.4,0,56.6-9,73.4-25.8c15-15,23-34.2,23-55.2c0-17-4.8-30.6-15.2-41
		c-10.6-10.6-27.6-18-54.8-18H482L444.4,323.3z M482.6,295.5l22.8-84.4h15c15.8,0,26,4,32.2,10.2c5.2,5.2,8.2,12.6,8.2,22.2
		c0,13.6-5,26-14,35c-11.2,11.2-28.2,17-46.8,17H482.6z"/>
	<path class="st1" d="M581,323.3h33.2l21.2-31.4h59.2l4.4,31.4h31.6l-22.2-141h-29.6L581,323.3z M653.8,264.7l30.8-46.2l6.4,46.2
		H653.8z"/>
	<path class="st1" d="M761.2,323.3H792l30-111.6h42.6l7.6-28.4h-116l-7.6,28.4h42.6L761.2,323.3z"/>
	<path class="st1" d="M855.8,323.3h105.6l7.4-27.4h-75.2l8-29.6h65l7.4-27h-65l7.6-28.6h74l7.4-27.4H893.4L855.8,323.3z"/>
</g>
</svg>
