<?xml version="1.0" encoding="utf-8"?>
<!-- Generator: Adobe Illustrator 22.1.0, SVG Export Plug-In . SVG Version: 6.00 Build 0)  -->
<svg version="1.1" id="Layer_1" xmlns="http://www.w3.org/2000/svg" xmlns:xlink="http://www.w3.org/1999/xlink" x="0px" y="0px"
	 viewBox="0 0 550.5 135.6" style="enable-background:new 0 0 550.5 135.6;" xml:space="preserve">
<style type="text/css">
	.st0{fill-rule:evenodd;clip-rule:evenodd;fill:#00FFD2;stroke:#231F20;stroke-width:3.5;stroke-miterlimit:10;}
	.st1{fill-rule:evenodd;clip-rule:evenodd;fill:#FFFFFF;stroke:#231F20;stroke-width:3.5;stroke-miterlimit:10;}
</style>
<path class="st0" d="M1.7,21.7h527v112H1.7V21.7z"/>
<path class="st1" d="M21.7,1.7h527v112h-527V1.7z"/>
<path d="M78.6,78.4h9.2V44.9h12.8v-8.5H65.8v8.5h12.8V78.4z"/>
<path d="M107.7,78.4h9.2V61.5h17v16.9h9.2v-42h-9.2V53h-17V36.4h-9.2V78.4z"/>
<path d="M153.3,78.4h32v-8.2h-22.8v-8.8h19.8v-8.2h-19.8v-8.5h22.5v-8.2h-31.7V78.4z"/>
<path d="M211.5,78.4h20c9.5,0,15.7-3.8,15.7-11.5v-0.1c0-5.6-3-8.5-7.9-10.3c3-1.7,5.5-4.3,5.5-9.1v-0.1c0-2.9-1-5.2-2.9-7.1
	c-2.4-2.4-6.2-3.7-11-3.7h-19.5V78.4z M220.5,53.4v-8.9h9.1c3.9,0,6.1,1.6,6.1,4.3v0.1c0,3.1-2.6,4.4-6.7,4.4H220.5z M220.5,70.3V61
	h10.7c4.7,0,6.8,1.7,6.8,4.6v0.1c0,3.1-2.5,4.6-6.5,4.6H220.5z"/>
<path d="M255.2,78.4h9.2v-42h-9.2V78.4z"/>
<path d="M295.2,79.1c7.7,0,13.6-3,17.9-6.7V54.2h-18.2v8h9.3v6c-2.3,1.7-5.3,2.5-8.7,2.5c-7.4,0-12.7-5.6-12.7-13.3v-0.1
	c0-7.1,5.3-13.1,12.1-13.1c4.9,0,7.7,1.6,11,4.3l5.8-7c-4.4-3.7-8.9-5.8-16.5-5.8c-12.7,0-22,9.8-22,21.7v0.1
	C273.1,69.9,282.1,79.1,295.2,79.1z"/>
<path d="M354.9,79c9.1,0,15.4-4.7,15.4-13v-0.1c0-7.3-4.8-10.4-13.3-12.6c-7.3-1.9-9.1-2.8-9.1-5.5v-0.1c0-2,1.9-3.7,5.4-3.7
	c3.5,0,7.2,1.6,10.9,4.1l4.8-7c-4.3-3.4-9.5-5.3-15.6-5.3c-8.6,0-14.7,5-14.7,12.7v0.1c0,8.3,5.5,10.7,13.9,12.8
	c7,1.8,8.5,3,8.5,5.3v0.1c0,2.5-2.3,4-6.1,4c-4.8,0-8.8-2-12.5-5.1l-5.5,6.5C342.1,76.8,348.6,79,354.9,79z"/>
<path d="M378.4,78.4h9.2V61.5h17v16.9h9.2v-42h-9.2V53h-17V36.4h-9.2V78.4z"/>
<path d="M424.4,78.4h9.2v-42h-9.2V78.4z"/>
<path d="M444.1,78.4h9.2V62.1h20v-8.4h-20v-8.9h22.7v-8.4h-32V78.4z"/>
<path d="M493.3,78.4h9.2V44.9h12.8v-8.5h-34.8v8.5h12.8V78.4z"/>
</svg>
