<?xml version="1.0" encoding="utf-8"?>
<!-- Generator: Adobe Illustrator 22.1.0, SVG Export Plug-In . SVG Version: 6.00 Build 0)  -->
<svg version="1.1" id="Layer_1" xmlns="http://www.w3.org/2000/svg" xmlns:xlink="http://www.w3.org/1999/xlink" x="0px" y="0px"
	 viewBox="0 0 751.2 133.7" style="enable-background:new 0 0 751.2 133.7;" xml:space="preserve">
<style type="text/css">
	.st0{fill-rule:evenodd;clip-rule:evenodd;fill:#00FFD2;stroke:#231F20;stroke-width:3.5;stroke-miterlimit:10;}
	.st1{fill-rule:evenodd;clip-rule:evenodd;fill:#FFFFFF;stroke:#231F20;stroke-width:3.5;stroke-miterlimit:10;}
</style>
<path class="st0" d="M2.5,19.8h729v112H2.5V19.8z"/>
<path class="st1" d="M20.5,1.8h729v112h-729V1.8z"/>
<path d="M77.3,78.5h9.2V45.1h12.8v-8.5H64.5v8.5h12.8V78.5z"/>
<path d="M106.4,78.5h9.2V61.7h17v16.9h9.2v-42h-9.2v16.6h-17V36.6h-9.2V78.5z"/>
<path d="M152,78.5h32v-8.2h-22.8v-8.8H181v-8.2h-19.8v-8.5h22.5v-8.2H152V78.5z"/>
<path d="M220,78.5h9.2V45.1H242v-8.5h-34.8v8.5H220V78.5z"/>
<path d="M266.6,79.2c11.3,0,18.4-6.2,18.4-19V36.6h-9.2v24.1c0,6.7-3.4,10.1-9.1,10.1c-5.6,0-9.1-3.5-9.1-10.4V36.6h-9.2v24
	C248.4,72.9,255.3,79.2,266.6,79.2z"/>
<path d="M294.5,78.5h9.2V65.1h7.1h0.1l9,13.4h10.8l-10.3-15c5.3-2,9-6.2,9-13v-0.1c0-4-1.3-7.3-3.6-9.6c-2.8-2.8-6.9-4.3-12.2-4.3
	h-19.2V78.5z M303.7,57V44.9h9.2c4.5,0,7.3,2,7.3,6V51c0,3.5-2.6,5.9-7.1,5.9H303.7z"/>
<path d="M337.8,78.5h9.1V51.9l20.3,26.7h7.9v-42H366v25.9l-19.7-25.9h-8.5V78.5z"/>
<path d="M385.7,78.5h9.2v-42h-9.2V78.5z"/>
<path d="M405.4,78.5h9.1V51.9l20.3,26.7h7.9v-42h-9.1v25.9l-19.7-25.9h-8.5V78.5z"/>
<path d="M473,79.3c7.7,0,13.6-3,17.9-6.7V54.4h-18.2v8h9.3v6c-2.3,1.7-5.3,2.5-8.7,2.5c-7.4,0-12.7-5.6-12.7-13.3v-0.1
	c0-7.1,5.3-13.1,12.1-13.1c4.9,0,7.7,1.6,11,4.3l5.8-7c-4.4-3.7-8.9-5.8-16.5-5.8c-12.7,0-22,9.8-22,21.7v0.1
	C450.9,70.1,459.9,79.3,473,79.3z"/>
<path d="M517.8,78.5h9.2V66h7c9.4,0,17-5,17-14.8v-0.1c0-8.6-6.1-14.5-16.1-14.5h-17.2V78.5z M527.1,57.7V44.9h7.1
	c4.6,0,7.5,2.2,7.5,6.4v0.1c0,3.6-2.7,6.4-7.3,6.4H527.1z"/>
<path d="M578.3,79.3c13,0,22.4-9.8,22.4-21.7v-0.1c0-11.9-9.3-21.6-22.3-21.6c-13,0-22.4,9.8-22.4,21.7v0.1
	C556.1,69.6,565.4,79.3,578.3,79.3z M578.4,70.8c-7.4,0-12.7-6-12.7-13.2v-0.1c0-7.2,5.2-13.1,12.6-13.1c7.4,0,12.7,6,12.7,13.2v0.1
	C591,64.9,585.9,70.8,578.4,70.8z"/>
<path d="M609.3,78.5h9.2v-42h-9.2V78.5z"/>
<path d="M629.1,78.5h9.1V51.9l20.3,26.7h7.9v-42h-9.1v25.9l-19.7-25.9h-8.5V78.5z"/>
<path d="M686.3,78.5h9.2V45.1h12.8v-8.5h-34.8v8.5h12.8V78.5z"/>
</svg>
