<?xml version="1.0" encoding="utf-8"?>
<!-- Generator: Adobe Illustrator 22.1.0, SVG Export Plug-In . SVG Version: 6.00 Build 0)  -->
<svg version="1.1" id="Layer_1" xmlns="http://www.w3.org/2000/svg" xmlns:xlink="http://www.w3.org/1999/xlink" x="0px" y="0px"
	 viewBox="0 0 1007.3 156.2" style="enable-background:new 0 0 1007.3 156.2;" xml:space="preserve">
<style type="text/css">
	.st0{fill:#00FFD2;stroke:#231F20;stroke-width:3.25;stroke-miterlimit:10;}
	.st1{fill:#FFFFFF;stroke:#231F20;stroke-width:3.25;stroke-miterlimit:10;}
</style>
<g>
	<path class="st0" d="M67.6,154.7c23.4,0,39.6-9,53-21.4l-20-20.8c-10.4,8.4-19.2,13.8-32.8,13.8c-20,0-34.2-13.6-34.2-33.8
		c0-29.8,23.8-54.2,49.4-54.2c16.8,0,26.2,7.6,34.4,19.2l25.4-17.8c-11.2-18.4-29.2-29.8-56-29.8C39.6,9.9,1.6,49.1,1.6,93.7
		C1.6,131.1,29.4,154.7,67.6,154.7z"/>
	<path class="st0" d="M206.8,154.7c50.2,0,84.2-41,84.2-82.8c0-35.2-25.4-62-64-62c-50.2,0-84.2,41-84.2,82.8
		C142.8,127.9,168.2,154.7,206.8,154.7z M210.4,126.3c-23,0-35.6-14.8-35.6-35.6c0-24.2,19.2-52.4,48.6-52.4
		c23,0,35.6,14.8,35.6,35.6C259,98.1,239.8,126.3,210.4,126.3z"/>
	<path class="st0" d="M298.2,152.3h30.4l24.6-91.8l42.4,91.8h26.2l37.6-140H429l-24,89l-40.8-89h-28.4L298.2,152.3z"/>
	<path class="st0" d="M484.8,152.3h30.8l30-111.6h42.6l7.6-28.4h-116l-7.6,28.4h42.6L484.8,152.3z"/>
	<path class="st0" d="M549.6,152.3h33.2l21.2-31.4h59.2l4.4,31.4h31.6L677,11.3h-29.6L549.6,152.3z M622.4,93.7l30.8-46.2l6.4,46.2
		H622.4z"/>
	<path class="st0" d="M782.4,154.7c23.4,0,39.6-9,53-21.4l-20-20.8c-10.4,8.4-19.2,13.8-32.8,13.8c-20,0-34.2-13.6-34.2-33.8
		c0-29.8,23.8-54.2,49.4-54.2c16.8,0,26.2,7.6,34.4,19.2l25.4-17.8c-11.2-18.4-29.2-29.8-56-29.8c-47.2,0-85.2,39.2-85.2,83.8
		C716.4,131.1,744.2,154.7,782.4,154.7z"/>
	<path class="st0" d="M880,152.3h30.8l30-111.6h42.6l7.6-28.4H875l-7.6,28.4H910L880,152.3z"/>
</g>
<g>
	<path class="st1" d="M81.6,146.7c23.4,0,39.6-9,53-21.4l-20-20.8c-10.4,8.4-19.2,13.8-32.8,13.8c-20,0-34.2-13.6-34.2-33.8
		c0-29.8,23.8-54.2,49.4-54.2c16.8,0,26.2,7.6,34.4,19.2l25.4-17.8c-11.2-18.4-29.2-29.8-56-29.8c-47.2,0-85.2,39.2-85.2,83.8
		C15.6,123.1,43.4,146.7,81.6,146.7z"/>
	<path class="st1" d="M220.8,146.7c50.2,0,84.2-41,84.2-82.8c0-35.2-25.4-62-64-62c-50.2,0-84.2,41-84.2,82.8
		C156.8,119.9,182.2,146.7,220.8,146.7z M224.4,118.3c-23,0-35.6-14.8-35.6-35.6c0-24.2,19.2-52.4,48.6-52.4
		c23,0,35.6,14.8,35.6,35.6C273,90.1,253.8,118.3,224.4,118.3z"/>
	<path class="st1" d="M312.2,144.3h30.4l24.6-91.8l42.4,91.8h26.2l37.6-140H443l-24,89l-40.8-89h-28.4L312.2,144.3z"/>
	<path class="st1" d="M498.8,144.3h30.8l30-111.6h42.6l7.6-28.4h-116l-7.6,28.4h42.6L498.8,144.3z"/>
	<path class="st1" d="M563.6,144.3h33.2l21.2-31.4h59.2l4.4,31.4h31.6L691,3.3h-29.6L563.6,144.3z M636.4,85.7l30.8-46.2l6.4,46.2
		H636.4z"/>
	<path class="st1" d="M796.4,146.7c23.4,0,39.6-9,53-21.4l-20-20.8c-10.4,8.4-19.2,13.8-32.8,13.8c-20,0-34.2-13.6-34.2-33.8
		c0-29.8,23.8-54.2,49.4-54.2c16.8,0,26.2,7.6,34.4,19.2l25.4-17.8c-11.2-18.4-29.2-29.8-56-29.8c-47.2,0-85.2,39.2-85.2,83.8
		C730.4,123.1,758.2,146.7,796.4,146.7z"/>
	<path class="st1" d="M894,144.3h30.8l30-111.6h42.6l7.6-28.4H889l-7.6,28.4H924L894,144.3z"/>
</g>
</svg>
