<?xml version="1.0" encoding="utf-8"?>
<!-- Generator: Adobe Illustrator 22.1.0, SVG Export Plug-In . SVG Version: 6.00 Build 0)  -->
<svg version="1.1" id="Layer_1" xmlns="http://www.w3.org/2000/svg" xmlns:xlink="http://www.w3.org/1999/xlink" x="0px" y="0px"
	 viewBox="0 0 830.5 334.2" style="enable-background:new 0 0 830.5 334.2;" xml:space="preserve">
<style type="text/css">
	.st0{fill:#00FFD2;stroke:#231F20;stroke-width:3.25;stroke-miterlimit:10;}
	.st1{fill:#FFFFFF;stroke:#231F20;stroke-width:3.25;stroke-miterlimit:10;}
</style>
<g>
	<path class="st0" d="M2.1,152.3h68.8c38.8,0,60.2-17.6,60.2-42.6c0-14.4-8-23-19.6-28.4c18-4,30-16,30-34.6
		c0-18.8-14.4-34.4-47.4-34.4H39.7L2.1,152.3z M54.5,68.9l7.8-29.6h29c13.6,0,19.4,5.4,19.4,12.6c0,11.6-9.4,17-25.2,17H54.5z
		 M39.3,125.3l8.2-30.8h33.8c12.6,0,19.2,5,19.2,13.2c0,10.8-9.6,17.6-25,17.6H39.3z"/>
	<path class="st0" d="M146.9,152.3h30.8l37.6-140h-30.8L146.9,152.3z"/>
	<path class="st0" d="M287.7,154.7c50.2,0,84.2-41,84.2-82.8c0-35.2-25.4-62-64-62c-50.2,0-84.2,41-84.2,82.8
		C223.7,127.9,249.1,154.7,287.7,154.7z M291.3,126.3c-23,0-35.6-14.8-35.6-35.6c0-24.2,19.2-52.4,48.6-52.4
		c23,0,35.6,14.8,35.6,35.6C339.9,98.1,320.7,126.3,291.3,126.3z"/>
	<path class="st0" d="M455.7,154.7c21,0,37-5.4,50.8-13.2l19.8-69.8h-60.8l-7.2,26.6h31l-6.6,22.8c-6.2,2.8-14.2,5.4-25,5.4
		c-19.8,0-35.8-11.8-35.8-33.6c0-29.2,23-54.8,53-54.8c17.6,0,28.6,7.2,36.8,16.2l22.8-20.2c-9.8-12.8-27.6-24.2-57.2-24.2
		c-50.4,0-87.4,40.4-87.4,84C389.9,135.7,423.7,154.7,455.7,154.7z"/>
	<path class="st0" d="M535.1,152.3h30.8l12-44.8h23l21.6,44.8h35l-23.8-47.8c13.8-3.2,24.6-9,32.4-16.8c8.2-8.2,12.8-19.8,12.8-33.2
		c0-11.4-3.8-21.2-10.8-28.2c-9.4-9.4-23.6-14-44.4-14h-51L535.1,152.3z M585.3,80.3l10.8-40.2h25.8c9.8,0,16.6,2,20.4,5.8
		c3,3,4.4,6.4,4.4,11.2c0,5.8-2.2,10.6-5.8,14.2c-6,6-16.2,9-28.2,9H585.3z"/>
	<path class="st0" d="M664.7,152.3h33.2l21.2-31.4h59.2l4.4,31.4h31.6l-22.2-141h-29.6L664.7,152.3z M737.5,93.7l30.8-46.2l6.4,46.2
		H737.5z"/>
	<path class="st0" d="M8.5,284.9h61.6l7.8-29.2H16.3L8.5,284.9z"/>
	<path class="st0" d="M84.5,332.3h30.8l11.4-42.4h26.6c38.2,0,68-19.8,68-54.6c0-12.2-3.6-21.6-10.8-28.8
		c-10.2-10.2-24-14.2-44-14.2h-44.4L84.5,332.3z M133.9,262.9l11.4-42.8h20c9.2,0,15,2,19.2,6.2c3,3,4.6,7,4.6,11.6
		c0,15.8-13.8,25-34.2,25H133.9L133.9,262.9z"/>
	<path class="st0" d="M220.3,332.3h30.8l15.2-56.2h56l-15.2,56.2h30.8l37.6-140h-30.8l-14.8,55.4h-56l14.8-55.4h-30.8L220.3,332.3z"
		/>
	<path class="st0" d="M402.9,332.3h30.8l14.2-52.4l76.6-87.6h-37.2l-48,58l-16.4-58h-34.2l29,84.8L402.9,332.3z"/>
	<path class="st1" d="M16.1,144.3h68.8c38.8,0,60.2-17.6,60.2-42.6c0-14.4-8-23-19.6-28.4c18-4,30-16,30-34.6
		c0-18.8-14.4-34.4-47.4-34.4H53.7L16.1,144.3z M68.5,60.9l7.8-29.6h29c13.6,0,19.4,5.4,19.4,12.6c0,11.6-9.4,17-25.2,17H68.5z
		 M53.3,117.3l8.2-30.8h33.8c12.6,0,19.2,5,19.2,13.2c0,10.8-9.6,17.6-25,17.6H53.3z"/>
	<path class="st1" d="M160.9,144.3h30.8l37.6-140h-30.8L160.9,144.3z"/>
	<path class="st1" d="M301.7,146.7c50.2,0,84.2-41,84.2-82.8c0-35.2-25.4-62-64-62c-50.2,0-84.2,41-84.2,82.8
		C237.7,119.9,263.1,146.7,301.7,146.7z M305.3,118.3c-23,0-35.6-14.8-35.6-35.6c0-24.2,19.2-52.4,48.6-52.4
		c23,0,35.6,14.8,35.6,35.6C353.9,90.1,334.7,118.3,305.3,118.3z"/>
	<path class="st1" d="M469.7,146.7c21,0,37-5.4,50.8-13.2l19.8-69.8h-60.8l-7.2,26.6h31l-6.6,22.8c-6.2,2.8-14.2,5.4-25,5.4
		c-19.8,0-35.8-11.8-35.8-33.6c0-29.2,23-54.8,53-54.8c17.6,0,28.6,7.2,36.8,16.2l22.8-20.2c-9.8-12.8-27.6-24.2-57.2-24.2
		c-50.4,0-87.4,40.4-87.4,84C403.9,127.7,437.7,146.7,469.7,146.7z"/>
	<path class="st1" d="M549.1,144.3h30.8l12-44.8h23l21.6,44.8h35l-23.8-47.8c13.8-3.2,24.6-9,32.4-16.8c8.2-8.2,12.8-19.8,12.8-33.2
		c0-11.4-3.8-21.2-10.8-28.2c-9.4-9.4-23.6-14-44.4-14h-51L549.1,144.3z M599.3,72.3l10.8-40.2h25.8c9.8,0,16.6,2,20.4,5.8
		c3,3,4.4,6.4,4.4,11.2c0,5.8-2.2,10.6-5.8,14.2c-6,6-16.2,9-28.2,9C626.7,72.3,599.3,72.3,599.3,72.3z"/>
	<path class="st1" d="M678.7,144.3h33.2l21.2-31.4h59.2l4.4,31.4h31.6l-22.2-141h-29.6L678.7,144.3z M751.5,85.7l30.8-46.2l6.4,46.2
		H751.5z"/>
	<path class="st1" d="M22.5,276.9h61.6l7.8-29.2H30.3L22.5,276.9z"/>
	<path class="st1" d="M98.5,324.3h30.8l11.4-42.4h26.6c38.2,0,68-19.8,68-54.6c0-12.2-3.6-21.6-10.8-28.8
		c-10.2-10.2-24-14.2-44-14.2h-44.4L98.5,324.3z M147.9,254.9l11.4-42.8h20c9.2,0,15,2,19.2,6.2c3,3,4.6,7,4.6,11.6
		c0,15.8-13.8,25-34.2,25H147.9L147.9,254.9z"/>
	<path class="st1" d="M234.3,324.3h30.8l15.2-56.2h56l-15.2,56.2h30.8l37.6-140h-30.8l-14.8,55.4h-56l14.8-55.4h-30.8L234.3,324.3z"
		/>
	<path class="st1" d="M416.9,324.3h30.8l14.2-52.4l76.6-87.6h-37.2l-48,58l-16.4-58h-34.2l29,84.8L416.9,324.3z"/>
</g>
</svg>
