<?xml version="1.0" encoding="utf-8"?>
<!-- Generator: Adobe Illustrator 22.1.0, SVG Export Plug-In . SVG Version: 6.00 Build 0)  -->
<svg version="1.1" id="Layer_1" xmlns="http://www.w3.org/2000/svg" xmlns:xlink="http://www.w3.org/1999/xlink" x="0px" y="0px"
	 viewBox="0 0 701.5 135.4" style="enable-background:new 0 0 701.5 135.4;" xml:space="preserve">
<style type="text/css">
	.st0{fill-rule:evenodd;clip-rule:evenodd;fill:#00FFD2;stroke:#231F20;stroke-width:3.5;stroke-miterlimit:10;}
	.st1{fill-rule:evenodd;clip-rule:evenodd;fill:#FFFFFF;stroke:#231F20;stroke-width:3.5;stroke-miterlimit:10;}
</style>
<path class="st0" d="M1.8,21.5h677v112H1.8V21.5z"/>
<path class="st1" d="M22.8,1.5h677v112h-677V1.5z"/>
<path d="M94.6,78.2h9.2V44.7h12.8v-8.5H81.9v8.5h12.8V78.2z"/>
<path d="M123.7,78.2h9.2V61.4h17v16.9h9.2v-42H150v16.6h-17V36.2h-9.2V78.2z"/>
<path d="M169.3,78.2h32V70h-22.8v-8.8h19.8V53h-19.8v-8.5H201v-8.2h-31.7V78.2z"/>
<path d="M227.5,78.2h32V70h-22.8v-8.8h19.8V53h-19.8v-8.5h22.5v-8.2h-31.7V78.2z"/>
<path d="M264.1,78.2h9.4l3.8-9.4h17.8l3.8,9.4h9.7l-18-42.3h-8.5L264.1,78.2z M280.7,60.6l5.6-13.6l5.6,13.6H280.7z"/>
<path d="M315.1,78.2h9.2V64.8h7.1h0.1l9,13.4h10.8l-10.3-15c5.3-2,9-6.2,9-13v-0.1c0-4-1.3-7.3-3.6-9.6c-2.8-2.8-6.9-4.3-12.2-4.3
	h-19.2V78.2z M324.4,56.6V44.6h9.2c4.5,0,7.3,2,7.3,6v0.1c0,3.5-2.6,5.9-7.1,5.9H324.4z"/>
<path d="M358.5,78.2h30.2v-8.4h-20.9V36.2h-9.2V78.2z"/>
<path d="M399.7,78.2h9.2V61.5l16.1-25.3h-10.5l-10.2,16.9l-10-16.9h-10.8l16.1,25.4V78.2z"/>
<path d="M448.8,78.2h16.4c13.2,0,22.3-9.2,22.3-21v-0.1c0-11.8-9.1-20.9-22.3-20.9h-16.4V78.2z M458.1,69.9V44.6h7.1
	c7.6,0,12.7,5.2,12.7,12.7v0.1c0,7.4-5.1,12.5-12.7,12.5H458.1z"/>
<path d="M495.8,78.2h32V70h-22.8v-8.8h19.8V53h-19.8v-8.5h22.5v-8.2h-31.7V78.2z"/>
<path d="M532.4,78.2h9.4l3.8-9.4h17.8l3.8,9.4h9.7l-18-42.3h-8.5L532.4,78.2z M548.9,60.6l5.6-13.6l5.6,13.6H548.9z"/>
<path d="M587.7,78.2h9.2V44.7h12.8v-8.5H575v8.5h12.8V78.2z"/>
<path d="M616.8,78.2h9.2V61.4h17v16.9h9.2v-42h-9.2v16.6h-17V36.2h-9.2V78.2z"/>
</svg>
