<?xml version="1.0" encoding="utf-8"?>
<!-- Generator: Adobe Illustrator 22.1.0, SVG Export Plug-In . SVG Version: 6.00 Build 0)  -->
<svg version="1.1" id="Layer_1" xmlns="http://www.w3.org/2000/svg" xmlns:xlink="http://www.w3.org/1999/xlink" x="0px" y="0px"
	 viewBox="0 0 550.7 134.4" style="enable-background:new 0 0 550.7 134.4;" xml:space="preserve">
<style type="text/css">
	.st0{fill:#00FFD2;stroke:#231F20;stroke-width:3.5;stroke-miterlimit:10;}
	.st1{fill:#FFFFFF;stroke:#231F20;stroke-width:3.5;stroke-miterlimit:10;}
</style>
<g>
	<path class="st0" d="M1.9,20.7h527v112H1.8L1.9,20.7L1.9,20.7z"/>
	<path class="st1" d="M21.9,1.7h527v112h-527L21.9,1.7L21.9,1.7z"/>
	<g>
		<path d="M78.7,78.4h9.2V44.9h12.8v-8.5H65.8v8.5h12.8L78.7,78.4L78.7,78.4z"/>
		<path d="M107.8,78.4h9.2V61.5h17v16.9h9.2v-42H134V53h-17V36.4h-9.2V78.4z"/>
		<path d="M153.4,78.4h32v-8.3h-22.8v-8.8h19.8v-8.2h-19.8v-8.5h22.5v-8.2h-31.7V78.4z"/>
		<path d="M211.6,78.4h20c9.5,0,15.7-3.8,15.7-11.5v-0.1c0-5.6-3-8.5-7.9-10.3c3-1.7,5.5-4.3,5.5-9.1v-0.1c0-2.9-1-5.2-2.9-7.1
			c-2.4-2.4-6.2-3.7-11-3.7h-19.5L211.6,78.4L211.6,78.4z M220.6,53.3v-8.9h9.1c3.9,0,6.1,1.6,6.1,4.3v0.1c0,3.1-2.6,4.4-6.7,4.4
			L220.6,53.3L220.6,53.3z M220.6,70.3v-9.2h10.7c4.7,0,6.8,1.7,6.8,4.6v0.1c0,3.1-2.5,4.6-6.5,4.6L220.6,70.3L220.6,70.3z"/>
		<path d="M254.9,78.4h32v-8.3h-22.8v-8.8h19.8v-8.2h-19.8v-8.5h22.5v-8.2h-31.7L254.9,78.4L254.9,78.4z"/>
		<path d="M315.4,79.1c7.7,0,13.6-3,17.9-6.7V54.2H315v8h9.3v6c-2.3,1.7-5.3,2.5-8.7,2.5c-7.4,0-12.7-5.6-12.7-13.3v-0.1
			c0-7.1,5.3-13.1,12.1-13.1c4.9,0,7.7,1.6,11,4.3l5.8-7c-4.4-3.7-8.9-5.8-16.5-5.8c-12.7,0-22,9.8-22,21.7v0.1
			C293.2,69.9,302.2,79.1,315.4,79.1z"/>
		<path d="M342.5,78.4h9.2v-42h-9.2V78.4z"/>
		<path d="M362.2,78.4h9.1V51.7l20.3,26.7h7.9v-42h-9.1v25.9l-19.6-25.9h-8.5L362.2,78.4L362.2,78.4z"/>
		<path d="M410.1,78.4h9.2v-42h-9.2V78.4z"/>
		<path d="M429.9,78.4h9.1V51.7l20.3,26.7h7.9v-42H458v25.9l-19.7-25.9h-8.5L429.9,78.4L429.9,78.4z"/>
		<path d="M497.5,79.1c7.7,0,13.6-3,17.9-6.7V54.2h-18.2v8h9.3v6c-2.3,1.7-5.3,2.5-8.7,2.5c-7.4,0-12.7-5.6-12.7-13.3v-0.1
			c0-7.1,5.3-13.1,12.1-13.1c4.9,0,7.7,1.6,11,4.3l5.8-7c-4.4-3.7-8.9-5.8-16.5-5.8c-12.7,0-22,9.8-22,21.7v0.1
			C475.4,69.9,484.4,79.1,497.5,79.1z"/>
	</g>
</g>
</svg>
