<?xml version="1.0" encoding="utf-8"?>
<!-- Generator: Adobe Illustrator 22.1.0, SVG Export Plug-In . SVG Version: 6.00 Build 0)  -->
<svg version="1.1" id="Layer_1" xmlns="http://www.w3.org/2000/svg" xmlns:xlink="http://www.w3.org/1999/xlink" x="0px" y="0px"
	 viewBox="0 0 879 436.2" style="enable-background:new 0 0 879 436.2;" xml:space="preserve">
<style type="text/css">
	.st0{fill:#FFFFFF;}
</style>
<g>
	<g>
		<g>
			<path class="st0" d="M175.5,281.1c-0.3,1.7-0.6,3.4-0.9,5.1c-0.6,3.1-1.9,6-3.7,8.6c-2.5,3.5-6.5,4.9-9.1,8.1
				c-5.1,6.5-1.5,18.2,5.7,23.7c9.2,7,16.9-4,26.4-2.1c6.2,1.3,10.3,8.2,17.2,6.7c7.6-1.6,8.6-9.4,8.8-16.7
				c0.2-8.6-7.3-16.4-10.8-24.3c-3.9-9-1-16.6-2-25.3c-1.1-9.8-1.3-19.6-1.2-29.3c0.1-17,0.9-34.1,2.8-50.7
				c1.8-16.2,2.5-31.4,9.7-45.4c4.7-9.2,18.8-13,16.8-25.8c-1-6.5-3.7-13.1-10.5-15.1c-6.3-1.9-12.5,2.9-18.7-0.6
				c-4.3-2.4-7.3-6.7-12.2-5.9c-4.2,0.7-7.3,5.8-9,9.4c-2.6,5.6,0.1,11.5-0.2,17.5c-0.2,4.6-2,9.6-3.2,13.8
				c-4.9,18.6-15.3,34.6-23.4,51.2c-1,2-1.2,3.8-3.5,4.8c-3.1-3.3-1.5-11.6-1.5-15.9c0-7.4,0.4-15,0.1-22.3
				c-0.3-7.4-0.7-14.9,0.9-22.2c2.1-9.4,9.9-16.7,10.4-26.6c0.2-4.5-1.4-9.5-6-12c-6.4-3.5-8.7,3.6-14.6,2.5
				c-5.3-1-8.5-8.9-14.1-9.3c-2.5-0.1-6.3,1.6-8.1,3.3c-2.6,2.5-4.6,5.1-4.8,9c-0.4,5.4,3.8,9.8,3.4,15.6
				c-0.9,14.8-6.3,28.3-10.8,41.7c-4.8,14.2-9,28.2-13.4,42.5c-6.5,20.9-14.3,41-20.6,62c-4.6,15.4-10.7,31.5-22.5,42.9
				c-5,4.8-12.9,8-16.6,13.9c-3.4,5.5-2.3,12.5-0.1,18.1c2,5.1,5.9,9.7,11.4,11.1c6.6,1.6,11.9-2.9,18.1,1.7
				c4.3,3.2,6.6,8.6,11.3,11.5c12.4,7.6,25.2-4,23.8-16.8c-0.7-6.2-3.1-12.3-3.6-18.5c-0.4-5.8,0.8-11.3,1.7-16.7
				c5.4-31.8,13.9-61.3,22.1-91.8c1-3.7,2.3-7.6,3.6-11.2c1.5-4,2.4-8.2,3.7-12.3c0.9-2.9,1.2-5.9,2.3-8.8c0.3-0.7,0.9-2.9,1.9-2.8
				c2.3,0,1,6,1,7.4c-0.1,2.6,0.1,5.2,0.1,7.8c-0.1,6.4-0.7,12.7-0.6,19.1c0.1,9.6,0.9,18.4-2.6,27.1c-2.4,5.9-9.2,8.1-8.9,15.2
				c0.3,6.2,1.9,12.6,9.4,11.5c6-0.8,7.3,1.1,11.6,4.5c3.3,2.6,7,6.1,11.6,4.7c10.8-3.3,4.2-17.4,3.8-26.1
				c-0.5-12.7,5.4-24.8,9.8-35.7c1.3-3.3,2.5-6.7,3.9-10c1-2.4,3.5-9.8,6.8-9.6c1.5,3.2,0.6,7,0.4,10.4c-0.2,3.7,0.7,7.5,0.6,11.3
				c-0.2,8.3-1.3,16.5-1.3,24.8c0,7.4-0.7,14.8-1,22.2C177,268.2,176.5,274.7,175.5,281.1z"/>
			<path class="st0" d="M404.3,294c-0.2,0.8-0.4,1.6-0.8,2.4c-3.4,6.9-10.4,7.1-17,2c-7.2-5.6-12.1,5.2-19.6,0.8
				c-12.5-7.3-4.3-19.6,0-27c2.6-4.6,6.2-9.8,7.6-15c2-7.5,2.6-16,4-23.8c0.9-5.3,1.8-10.4,1.8-15.9c0-5.1,1.2-9.7,2-14.5
				c0.9-5.2,3.7-9.9,3.3-15.5c-2.6-0.5-3.6,4.9-4.6,6.9c-3.1,6.4-6.2,13-9.9,19c-3.4,5.3-6.4,11.4-5.6,18.7c0.7,6.1,2,12.8-3,16.3
				c-2.4,1.7-5.5,1.8-8.4-0.9c-3.5-3.2-1.8-5.9-6.6-6.7c-2.6-0.4-6.5,1.1-9.1-1.1c-2.3-2-2.6-6.9-1.8-9c1.9-5.8,2.6-8.8,2.3-15.3
				c-0.3-6.5-1-13.1-1.6-19.7c0-0.1-1.4-14.5-2.9-13.1c-3,2.6-2.9,14.6-3.4,19c-1.1,9.8-2.2,19.6-3.3,29.4c-1,9-2.3,18.7-0.1,27.6
				c1.3,5.2,5.4,9.3,5.7,14.8c0.3,4.1-0.3,6.3-3.4,9c-2.9,2.5-6.3,3.6-10.2,3c-7.1-1-8.9-8.7-16.9-4.4c-4.3,2.3-7.6,3.1-12.6-1.2
				c-4.8-4.2-6.9-11.5-5.2-17.7c1.4-4.9,7.3-8.2,9.4-13.5c6.4-15.6,12.6-31.3,15.8-47.9c3.4-17.5,4.7-35.3,6.8-53
				c0.8-7.1,2.2-15.4-0.2-22.9c-1.8-5.5-5.7-10.2-2.8-15.3c1.3-2.2,3.8-4.5,6.2-5.4c3.5-1.2,4.3,0.4,7.4,2.5c6,4,5.7,0.7,11.3-0.3
				c5.4-1,10.9,3.6,11.2,9.5c0.2,3.7-1.5,6.2-2.7,9.2c-1.2,3.1-1.4,6.2-1.4,9.9c0,8.6,1.3,17.4,1.8,26.1c0.6,10.4,3.1,20.9,4.2,31.3
				c0.2,1.6,0.7,7.5,2.6,8.3c2.7,1.2,4.5-5.9,5.3-7.6c2.3-4.8,5-9,7.3-13.8c1.9-4,4.3-8,5.9-12.3c4.5-11.5,9.5-24.4,11.2-37.2
				c0.7-5.6-3.6-11.4-2-17c1.6-5.5,10.1-6.1,15.1-3c4.9,2.9,5.2,8.6,11.2,10.3c7.4,2,17.1,1.7,16.3,13.1
				c-0.7,9.8-10.5,13.6-13.3,22.1c-5.5,16.6-7.5,35.2-9.4,53.1c-1.5,13.9-2.5,27.9-3.3,42c-0.4,6.7-0.8,13.5-0.7,20.2
				c0.1,5.1,1.7,8.8,4,13.2C403.8,286.8,404.9,290.6,404.3,294z"/>
			<path class="st0" d="M525.5,168.9c-3.7,0.9-10.8-0.6-13.3-1.4c-4.5-1.6-7.7-6.3-12-8.5c-6.7-3.4-12.8,1.5-14.6,7.8
				c-1.4,4.9-3.8,12.2,2.6,15.9c3.2,1.9,7.9,1.9,10.5,4.8c4.7,5.3,2.2,14.2,2.2,20.5c0,5.2,0.3,10.5,0,15.6
				c-0.2,3.4-0.4,7.2-0.4,10.9c0,10.6,0.4,22.6-6.8,31.4c-1.9,2.4-4.1,4.2-4.6,7.3c-1.5,8.4,4.1,12.4,11.8,13.4
				c3.3,0.4,5.6,0.4,8.1,2.8c4.7,4.6,9.3,7.6,16,5.6c10-2.9,6.4-15.7,3.7-22.7c-3.5-9-5.6-17.4-5.6-27.3c0-4.7,0-9.4,0-14.1
				c0-4.7,0.4-9.4,0.7-14c0.3-5.1-0.6-13.2,1.6-17.9c3.7-7.9,18.1-9.3,25.2-7c5.5,1.8,11.4,6.3,15.9,2.2c4.3-3.9,4.8-13.1-0.3-18.2
				c-2-2-4.1-2-6.2-3.4c-1.8-1.2-3.1-3.4-4.7-5c-2.8-2.9-5.1-6.6-7.6-9.8c-3.5-4.7-6.4-10.4-10.3-14.7c-1.5-1.7-8.6-8.5-7.9-10.9
				c0.9-2.7,12,1,13.9,1.4c6.3,1.4,12.4,3.3,18.1,6.3c4.9,2.6,10.1,8.5,16,8.3c2.3-0.1,4.7-0.9,6.5-2.4c1.4-1.2,2.5-3.3,2.8-4.9
				c0.5-2.7-1.2-4.1-1.9-6.5c-0.8-2.7,0-3.9,1.3-6.4c2.2-4.5,4-8.1,1.4-13c-3.6-6.5-10.5-6.8-15.7-4.8c-6.1,2.4-13,3.3-20.1,2.9
				c-11.3-0.7-26.1-3.4-37.3-7.9c-9.2-3.8-15.9-11.2-24.2-4.5c-5.7,4.6-10,17.8,0.2,22.7c4.3,2,8.7,1.8,12.9,4.6
				c3.9,2.6,5.3,6.2,8,10c3.5,4.9,7.4,9.5,10.5,14.7c1.9,3.1,7.3,12,5.6,15.1C527.3,168.2,526.5,168.6,525.5,168.9z"/>
			<path class="st0" d="M722.2,291.2c0.3,1.8,0.6,3.5,0.7,5.3c0.4,8.7-3.8,14.4,4.3,20.3c4.7,3.4,9,2.1,13.2-1.3
				c4.1-3.3,7.8-9.3,13.6-9.5c6.6-0.2,11.7,2.7,16.1-3.6c10.4-14.7-14-25.9-22.4-35.4c-12.1-13.7-20.2-32.1-28.3-48.2
				c-3.1-6.3-6.5-12.8-10.4-18.9c-2.9-4.6-6.2-8.8-9.3-13.1c-5.7-7.9-1-15.3,3.3-20.8c1.7-2.2,3.6-4.3,4.9-6.9
				c2.4-4.5,5.7-8.3,8.5-12.7c0.7-1.1,1.8-2.1,2.6-3.3c4.6-7.1,11.1-14.9,17.6-20.3c5.1-4.3,11.7-5.4,11.3-14.1
				c-0.2-4.9-2.3-9.8-8-10.7c-4.8-0.7-8,3.8-13.6,0.6c-3.9-2.2-5.3-7.9-10.6-7.5c-5.1,0.4-6.7,6.6-6.6,10.9
				c0.1,5.9,0.1,9.6-1.5,15.1c-5.2,16.9-15.7,29.1-25.2,42.6c0,0-3.3,6.3-4.2,3.6c-1.8-5.8-0.8-11.9-0.8-17.5c0-5-1.3-15.1,0.8-18.9
				c3.8-6.8,11.9-15.2,5.9-25.1c-6.4-10.7-14.2,1.2-21.1-3.8c-3.6-2.6-6.6-8-10.9-9.2c-5.2-1.4-8.5,2.7-10.4,6.6
				c-2.8,5.8-0.2,12,2.5,18.2c6.1,14.1,5.9,27.4,7.6,41.6c3.7,31.8,0.1,61-1.5,91.7c-0.4,7.8,0.2,15.5,0,23.3
				c-0.3,11.8-1,26.1-9.8,34.5c-6.1,5.9-6.7,20.5,2.3,24.1c4.1,1.6,9,0.6,13.2,0.1c4.4-0.5,5.8,1.7,8.8,4.7
				c4.9,5.1,11.4,11.3,18.7,6.5c4.1-2.6,7.4-6,8.3-11.3c1.5-8.4-4.4-14.3-7.3-22.1c-2.4-6.7-3.4-17.8-3.5-24.9
				c-0.1-9.8-2.3-19.5-2.2-29.3c0.1-10.7-0.6-22.1-1.3-33c-0.4-5.6-3.5-17,4.1-17.9c5.9-0.7,10.7,7.4,13.1,12.2
				c3.8,7.6,6.7,15.4,9.8,23.5c3.8,10,8.3,19.8,11.6,29.9c1.5,4.7,4,9.5,4.5,14.4C720.7,284.7,721.6,287.9,722.2,291.2z"/>
			<path class="st0" d="M626.4,315.6c-3.2-3-9.3-2.8-11.4-6.9c-1-2-0.2-4.4-1.1-6.3c-2.1-4.5-7.2-3.9-11.2-3.4
				c-4.8,0.6-7.1,3.2-10.7,6.5c-4.5,4.2-9.7,7.4-15.5,9.6c-9,3.3-17.5,7.6-27.2,9.3c-18.4,3.4-35.6,9.7-54.4,11.8
				c-6.9,0.8-10.4,0.9-17.5-1.1c-14.3-3.9-28.9-7.7-43.1-12.9c-9.2-3.4-18.1-7.1-27.6-9.9c-12.6-3.8-28.5-8.8-39.5-17.9
				c-3.1-2.6-4.5-4.4-6.6-7.9c-1.7-2.9-3.6-4.6-7.2-4.3c-2.8,0.2-7.9,0.4-9.9,2.7c-2.1,2.4-0.8,6.7-1.9,9.6
				c-1.6,3.9-5.9,5.2-8.6,8.1c-2.1,2.3-3.5,7-2.9,10.1c1.3,6.4,10,12.5,16.1,13.2c8.3,0.9,16.8-0.4,24.9-0.7
				c8.5-0.3,17.2,2.8,25.7,4.7c5.9,1.4,11.7,4.2,17.5,6c5.6,1.8,11.2,3.6,16.7,5.1c7.2,1.9,14.2,4.2,21.3,6.1
				c-0.1,0-4.1,1.9-4.7,2.1c-1.9,0.5-4,1-6,1.5c-13.7,3.5-27.9,5.3-41.9,7.9c-21,4-42.4,13.5-65.3,7c-7.2-2.1-14.5-3.3-19.2,2.5
				c-4.3,5.2-4.8,13.3,1.7,18.4c3.5,2.7,6.8,4.5,7.2,9.2c0.4,4.5-2.9,8.3,0,13c3,4.9,8.3,7.2,13,7c9-0.4,15.4-7.3,21.2-12.9
				c9.7-9.4,21.1-12.9,33.4-17.8c4.4-1.7,8.8-3.2,13.3-4.7c11-3.7,22.2-6.8,33.7-9.5c16.6-3.9,32.9-7.8,49.6-10.3
				c8.5-1.3,16.9,3,25.4,5.7c9.1,2.9,18,5.6,27,9.1c9.4,3.7,19.1,6.5,28.5,10.5c7.3,3.1,12.9,6.6,19.1,11.8c2.5,2.1,4.5,4.8,7.1,6.9
				c4.1,3.4,10.7,3.7,15.7,2.7c5.1-1.1,6.2-5,6.6-10.1c0.3-3.1-0.8-6.9-0.1-9.8c0.8-3.1,3.5-4.7,5.6-6.7c5.1-5-0.8-14.7-7.2-17.5
				c-9.1-4-18.9-0.1-27.5,0.5c-6.5,0.4-13.3,0.1-20-1.3c-4.6-0.9-9.3-2.2-13.9-3.4c-9.3-2.5-18.5-5.5-27.7-8.4c-1.4-0.4-5.9-3-7-2.6
				c2.6-0.9,5.3-2.4,8.1-2.6c4.2-0.3,8.3-1.2,12.4-2c12.3-2.6,24.5-5,36.9-7.3c10-1.9,23.5-9.5,33.1-3.8c5,3,10.1,3.5,14.8-0.6
				c3.8-3.4,5.4-8.9,3.1-13.6C627.7,317,627.1,316.3,626.4,315.6z"/>
		</g>
		<path class="st0" d="M291.8,158.3c0.7-7.2,2.3-15.2,9.3-17.4c5.4-1.7,7.7-9.2,7.6-14.9c-0.1-8.4-5.3-13.4-13.2-15.2
			c-7.3-1.7-12.8,10.3-18.7,0.2c-3.2-5.5-5.3-9.9-11.5-8.8c-6.6,1.1-13,7.9-12.2,15.4c0.6,5.3,4,10.2,2.6,15.5
			c-2.8,10.6-9,21-13.4,31c-4.9,11.2-10.7,22-15.7,33.1c-3.3,7.3-6.7,13.9-10.5,20.8c-3.5,6.3-7.2,11.9-14.2,14.9
			c-2.9,1.3-6.3,1.9-8.5,4.3c-2.2,2.4-2.9,6.8-3.4,9.9c-1.1,7.4,1.5,17.5,10.2,18.6c4.3,0.5,8.3,3,11.3,6.1c0.7,0.7,1.3,1.5,2,2.4
			c3.7,5.4,5.9,8.7,13.1,7.4c4.4-0.8,8.7-4.7,9.4-9c0.5-2.9,0.8-5.9,0.6-8.9c-0.3-3.4-1.3-6.3-1.1-9.8c0.3-6,0.6-14.6,7.5-16.6
			c3.2-0.9,6.6-0.1,9.3,1.8c7,5,6.1,15.3,5.2,22.6c-0.7,5.3-0.8,10.7-1.2,16.1c-0.9,10.4-2,20.9-4.2,31.1
			c-2.8,13-11.9,25.1-12.6,38.8c-0.4,7.5,4.2,16.8,11.7,20.1c8.3,3.7,12.8-5.5,20.5-5.5c5.2,0,8,4.9,12.5,6.3
			c4.9,1.5,10.8-2.3,14.3-5.6c9.2-8.4-1.5-21.8-3.7-30.6c-5.6-21.4-2.9-44.9-4.5-66.1c-0.5-6.3-0.1-12.1,0.4-18.3
			c0.6-7.2-0.2-14.6,0.2-21.8c0.6-12.3,0-24,0.2-36.3C291,179.1,290.8,168.7,291.8,158.3z M250.7,226.2c-3.6-1.4-6.4-3.7-6.3-7.5
			c2.3-7,4.8-13.9,7.6-20.6c2.9-6.8,6.9-12.2,9.3-19.5c0.5-1.6,1.2-6.3,3.4-3.3c0.3,0.4-0.5,8.8-0.5,9.6c-0.4,7.9-1,15.8-1.7,23.6
			c-0.4,4.4,0.7,14.9-3.9,17.6C256.4,227.5,253.1,227.1,250.7,226.2z"/>
		<path class="st0" d="M502.2,305.3c-0.4-5.3-1.5-9.1-4.8-13.5c-6.6-8.8-6.5-21.5-7.9-31.5c-1.7-11.9-2.6-23.1-4.8-35
			c-2.5-13.3-4.8-26.6-6.2-39.9c-0.9-8.3,0-16.6-1-24.8c-0.9-7-2.2-12.5,0.6-18.9c3.2-7.2,7.9-10.7,4.6-19.8
			c-2.5-7-7.6-13.9-14.9-11.1c-6.7,2.6-7.2-2.8-11.4-6.6c-3.7-3.4-9.2-1.4-12.1,0.8c-4.2,3.2-5.6,8.4-4.5,14.2
			c1.3,6.7,1.7,12.4-0.9,18.4c-2.1,4.8-2.2,10.3-3.8,15.5c-4.4,14.4-9.8,28.3-14.8,42.4c-0.2,0.5-0.4,1.1-0.6,1.7
			c-5.1,14.3-9.9,30-19.3,41.2c-2.7,3.1-7.1,4.5-9.4,8c-3.6,5.6-1.4,12.6,1.7,17.8c1.6,2.7,2.4,4.7,5.7,5.6c2.5,0.7,5.2,0.5,7.7,0.6
			c2.9,0.1,6.3,0.2,8.6,2.3c3.3,3,4.5,6.6,9.5,6.9c4.4,0.3,9.7-1.3,11.8-5.5c4.3-8.9-3.2-16.6-3.4-25.3c-0.1-3.7,0.7-7.2,1.1-10.7
			c0.4-2.9,0.4-6,3.1-7.7c1.9-1.2,4.5-1.8,6.7-1.4c3.7,0.7,7.5,2.1,10.6,4.5c5.1,3.8,5.1,9,5.6,14.9c0.6,7.2,0.6,14.4,1.4,21.6
			c0.7,6.8,1.6,15.3-2.6,20.2c-3.6,4.2-6.8,5.6-6.2,12.5c0.5,6.2,5.5,12.3,11.4,13.8c3.4,0.9,6.2-0.4,9.1-1.6c2.5-1,6.1-1.5,9-0.9
			c5,1.1,10.9,6.3,15.8,4.2C501.7,316.3,502.6,310,502.2,305.3z M454.2,216.4c-1,0.8-2.5,1.1-4.7,0.8c-1.8-0.3-5.5,0.2-6.9-0.4
			c-5.1-2.3-1.2-12.6,0-16.1c2-5.6,4.3-11,5.4-16.8c0.3-1.3,2.1-16.3,4.6-15.8c1.8,0.4,1.2,8.8,1.1,10.1c-0.5,6,0.3,11.9,0.8,17.9
			c0.4,4,0.9,8,1.3,12.1C456.2,211.5,456.2,214.9,454.2,216.4z"/>
		<path class="st0" d="M651.2,255.9c-10.7-14.5-9.5-31.6-11.5-47.6c-1.3-10.1-1.3-19.7-2.5-29.7c-0.7-5.8-1.2-11.5-1.6-17.3
			c-1-11.9-3.2-19.9,0.3-30.9c1.3-4.1,1.8-9.2,2.6-13.5c0.8-4.1-0.2-9.4-4.4-12.1c-6.5-4.2-9.5,1.2-14.4,2.9
			c-5,1.8-9.3-2.9-13.7-5.9c-8.1-5.6-16.3,1.9-15,10.5c0.8,5.4,5.2,10.1,5.7,15.4c0.6,6.8-1.9,14-4.1,19.8c-3.2,8.6-7.1,17.1-9.5,26
			c-4.3,15.8-12.7,29.6-18.5,44.5c-5.6,14.6-10.4,31.5-19.1,43.9c-2.1,3.1-6,7.7-8.9,10c-4.3,3.4-7.5,3.3-10.6,8.6
			c-4.3,7.5-2.9,24.9,7.7,27.2c4.1,0.9,8.8-2.1,12.9-2.7c4.3-0.6,7,0.7,10.9,2.4c5.3,2.3,13.2,3.3,16.1-2.9
			c3.2-6.7-0.2-13.7-1.6-20.3c-1.9-8.8,4.3-19.9,6.9-27.3c1.9-5.2,3.8-10.5,5.6-15.7c2-5.7,5.7-9.7,11.6-11.2
			c4.6-1.1,10.6-0.9,15.3,0c8.7,1.6,5.9,11,3,16.9c-3.2,6.7-9.4,16.5-3.2,24.9c5,6.8,10.2,3.4,16.1,3.4c6.2,0,11.6,6,17.3,5.9
			c3.9-0.1,7.9-3.2,9.4-6.6C657.3,267.6,656.3,262.9,651.2,255.9z M617.7,209.2c0.3,6.1-2.4,10.5-8.6,9.5
			c-3.7-0.6-12.6,1.5-14.6-2.8c-1.6-3.6,1.4-9.6,2.6-13c1.8-4.8,3.7-9.7,5.5-14.5c1.8-4.9,3.2-10.2,5.5-14.7
			c4.4-8.4,6.5,6.6,7.1,10.6c0.5,3.3,0.9,6.7,1.2,10s0.3,6.6,0.7,9.9C617.4,205.7,617.7,207.4,617.7,209.2z"/>
		<path class="st0" d="M844.7,323.4c-0.6-5.1-2.5-10-5.3-14.3c-2.5-3.9-6.2-6.1-9-9.5c-5.3-6.4-7.6-15.1-9.3-23
			c-1.8-8.5-5.3-16.7-6.9-25.1c-1.6-8.4-3.8-16.8-5.5-25.1c-1.4-6.7-3.2-13.2-4.6-19.9c-1-4.7-2.1-9.3-2.8-14
			c-1.5-9-3.3-18.1-5-27.1c-2.5-12.5-5-24.9-2.3-36.6c2.1-8.9,9.8-19.5,0.7-29c-7.2-7.5-10.8,2.9-17.3-0.4
			c-5.9-3-6.3-10.7-13.8-10.6c-5.2,0.1-9.3,4.5-9.9,9.7c-0.5,4.4,1.6,8.7,1.4,13.1c-0.3,6.9-2.8,15-4.2,21.6c-1.8,8-4.9,17-8.4,24
			c-6.8,13.6-11.1,28.8-23.3,38.2c-4,3-10.9,3.2-11.3,9.6c-0.3,5.4,3.1,13,8.4,15.4c2.8,1.3,5.3,0.7,8.1,1.4
			c7.2,1.8,6.3,13.5,14.8,15.1c3.8,0.7,10-2.2,12.3-4.8c3.6-4-0.3-12.1-0.8-17.8c-0.2-2.5-0.1-5.1,0.9-7.5c1.2-2.8,2-3.9,5.1-4.1
			c3.4-0.2,6.7,1.2,10,2.7c3.1,1.4,5.6,2.8,8,5.2c5.4,5.5,7,10.8,8.3,18.3c1.6,8.9,3.5,17.7,4.5,26.7c1.3,10.7,3.1,21.6,3.2,32.7
			c0.1,7,1.4,14,1.1,21c-0.3,6.4-3.8,13.4-2.6,19.8c0.6,3.1,3.5,7.1,5.6,9.4c2.6,2.9,6.7,4.8,10.6,3.6c4.2-1.3,7.3-4.7,11.9-4.8
			c3.3-0.1,5.2,2.1,7.9,3.7c2.9,1.7,7.8,1.7,10.5,0.1c2.8-1.6,6.8-3.7,7.8-7C844.6,330.6,845.1,327,844.7,323.4z M773.5,189.5
			c-3.3,0.2-10.7-1.5-13.6-3.1c-4.8-2.6-1-9.5,0.4-12.9c2.6-6.2,3.3-13.2,5.9-19.6c0.8-2.1,1.8-10.3,5.2-9.6c3,0.7,2.5,8.7,2.6,10.9
			c0.2,5.8,1,11.7,1.7,17.5c0.4,4,2.5,8.6,1.7,12.8C776.8,188.2,775.4,189.4,773.5,189.5z"/>
	</g>
	<g>
		<path class="st0" d="M276.8,51V25.6h-9.1V21h23.4v4.6H282V51H276.8z"/>
		<path class="st0" d="M323.3,51V37.9h-15.6V51h-5.3V21h5.3v12.3h15.6V21h5.3v30H323.3z"/>
		<path class="st0" d="M341.7,51V21h20.6v4.6H347v7.8h15V38h-15v8.3h15.3v4.6h-20.6V51z"/>
		<path class="st0" d="M393.8,46.8l2.9-4c2.1,2.2,5.3,4.1,9.5,4.1c4.3,0,6-2.1,6-4.1c0-6.3-17.5-2.4-17.5-13.5
			c0-4.9,4.4-8.8,10.9-8.8c4.7,0,8.5,1.5,11.2,4.2l-3,3.9c-2.3-2.3-5.5-3.4-8.7-3.4c-3.1,0-5.1,1.5-5.1,3.7
			c0,5.6,17.5,2.1,17.5,13.3c0,5-3.5,9.3-11.6,9.3C400.4,51.6,396.4,49.6,393.8,46.8z"/>
		<path class="st0" d="M435.9,51V25.6h-9.1V21h23.4v4.6h-9.1V51H435.9z"/>
		<path class="st0" d="M459,36c0-9,6.3-15.5,15.3-15.5s15.3,6.6,15.3,15.5s-6.3,15.5-15.3,15.5C465.3,51.6,459,45,459,36z M484.3,36
			c0-6.2-3.9-10.8-9.9-10.8c-6.1,0-9.9,4.6-9.9,10.8c0,6.2,3.9,10.8,9.9,10.8C480.4,46.9,484.3,42.2,484.3,36z"/>
		<path class="st0" d="M518.7,51L512,39.8h-5.2V51h-5.3V21h13.2c5.9,0,9.8,3.9,9.8,9.4c0,5.4-3.5,8.2-7.1,8.8l7.3,11.8L518.7,51
			L518.7,51z M519.1,30.4c0-2.9-2.2-4.8-5.1-4.8h-7.2v9.5h7.2C516.9,35.2,519.1,33.3,519.1,30.4z"/>
		<path class="st0" d="M544.3,51V38.5L532.6,21h6l8.3,12.9l8.2-12.9h6l-11.6,17.6v12.5h-5.2V51z"/>
		<path class="st0" d="M588.1,36c0-9,6.3-15.5,15.3-15.5s15.3,6.6,15.3,15.5s-6.3,15.5-15.3,15.5C594.5,51.6,588.1,45,588.1,36z
			 M613.4,36c0-6.2-3.9-10.8-9.9-10.8c-6.1,0-9.9,4.6-9.9,10.8c0,6.2,3.9,10.8,9.9,10.8C609.5,46.9,613.4,42.2,613.4,36z"/>
		<path class="st0" d="M630.7,51V21h20.6v4.6H636v7.8h15V38h-15v13H630.7z"/>
	</g>
</g>
</svg>
